{"asset":{"version":"2.0","generator":"THREE.GLTFExporter"},"scenes":[{"nodes":[0,1,2,3,4,7]}],"scene":0,"nodes":[{},{"translation":[5,5,5],"extensions":{"KHR_lights_punctual":{"light":0}}},{"translation":[-5,5,5],"extensions":{"KHR_lights_punctual":{"light":1}}},{"translation":[5,5,-5],"extensions":{"KHR_lights_punctual":{"light":2}}},{"translation":[-5,5,-5],"extensions":{"KHR_lights_punctual":{"light":3}}},{"name":"geometry_0","extras":{"processed":true,"name":"geometry_0"},"mesh":0},{"name":"world","extras":{"name":"world"},"children":[5]},{"scale":[0.7,0.7,0.7],"children":[6]}],"extensions":{"KHR_lights_punctual":{"lights":[{"color":[1,1,1],"intensity":10,"type":"directional"},{"color":[1,1,1],"intensity":10,"type":"directional"},{"color":[1,1,1],"intensity":10,"type":"directional"},{"color":[1,1,1],"intensity":10,"type":"directional"}]}},"bufferViews":[{"buffer":0,"byteOffset":0,"byteLength":21876,"target":34962,"byteStride":12},{"buffer":0,"byteOffset":21876,"byteLength":14584,"target":34962,"byteStride":8},{"buffer":0,"byteOffset":36460,"byteLength":33240,"target":34963}],"buffers":[{"byteLength":69700,"uri":"data:application/octet-stream;base64,"}],"accessors":[{"bufferView":0,"componentType":5126,"count":1823,"max":[0.500264048576355,0.09954596310853958,0.1822802573442459],"min":[-0.5006610155105591,-0.09901264309883118,-0.18394941091537476],"type":"VEC3"},{"bufferView":1,"componentType":5126,"count":1823,"max":[0.9995614290237427,0.9995421171188354],"min":[0.0004385965003166348,0.0004578828811645508],"type":"VEC2"},{"bufferView":2,"componentType":5125,"count":8310,"max":[1822],"min":[0],"type":"SCALAR"}],"materials":[{"pbrMetallicRoughness":{"metallicFactor":1,"roughnessFactor":1,"baseColorTexture":{"index":0,"texCoord":0}}}],"textures":[{"sampler":0,"source":0}],"samplers":[{"magFilter":9729,"minFilter":9987,"wrapS":10497,"wrapT":10497}],"images":[{"mimeType":"image/png","uri":"data:image/png;base64,"}],"meshes":[{"primitives":[{"mode":4,"attributes":{"POSITION":0,"TEXCOORD_0":1},"indices":2,"material":0}]}],"extensionsUsed":["KHR_lights_punctual"]}