{
  "accessors": [
    {
      "bufferView": 2,
      "componentType": 5126,
      "count": 65532,
      "max": [
        41.448978424072266,
        41.04100799560547,
        30.355640411376953
      ],
      "min": [
        -37.43262481689453,
        -21.50569725036621,
        -22.928054809570313
      ],
      "type": "VEC3"
    },
    {
      "bufferView": 2,
      "byteOffset": 786384,
      "componentType": 5126,
      "count": 65532,
      "max": [
        1.0,
        1.0,
        1.0
      ],
      "min": [
        -1.0,
        -1.0,
        -1.0
      ],
      "type": "VEC3"
    },
    {
      "bufferView": 1,
      "componentType": 5126,
      "count": 65532,
      "max": [
        0.9984009861946106,
        0.9992910027503967
      ],
      "min": [
        0.0007089999853633344,
        0.00019200000679120421
      ],
      "type": "VEC2"
    },
    {
      "bufferView": 0,
      "componentType": 5125,
      "count": 331002,
      "type": "SCALAR"
    },
    {
      "bufferView": 2,
      "byteOffset": 1572768,
      "componentType": 5126,
      "count": 49377,
      "max": [
        41.448978424072266,
        40.69200134277344,
        32.19451141357422
      ],
      "min": [
        -36.82374572753906,
        -21.47262191772461,
        -22.175752639770508
      ],
      "type": "VEC3"
    },
    {
      "bufferView": 2,
      "byteOffset": 2165292,
      "componentType": 5126,
      "count": 49377,
      "max": [
        0.9999707937240601,
        0.9956980347633362,
        0.9999690651893616
      ],
      "min": [
        -0.9987846612930298,
        -0.9997445940971375,
        -0.9995051026344299
      ],
      "type": "VEC3"
    },
    {
      "bufferView": 1,
      "byteOffset": 524256,
      "componentType": 5126,
      "count": 49377,
      "max": [
        0.9139670133590698,
        0.9992910027503967
      ],
      "min": [
        0.0007089999853633344,
        0.2847230136394501
      ],
      "type": "VEC2"
    },
    {
      "bufferView": 0,
      "byteOffset": 1324008,
      "componentType": 5125,
      "count": 268998,
      "type": "SCALAR"
    }
  ],
  "asset": {
    "extras": {
      "author": "Natural History Museum Vienna (https://sketchfab.com/NHMWien)",
      "license": "CC-BY-NC-4.0 (http://creativecommons.org/licenses/by-nc/4.0/)",
      "source": "https://sketchfab.com/3d-models/guava-nhmw-afw-ding-0046-002-40caea98298f42b78e9c1c86bc0950d6",
      "title": "Guava (NHMW-AFW-DING-0046-002)"
    },
    "generator": "Sketchfab-15.55.0",
    "version": "2.0"
  },
  "bufferViews": [
    {
      "buffer": 0,
      "byteLength": 2400000,
      "name": "floatBufferViews",
      "target": 34963
    },
    {
      "buffer": 0,
      "byteLength": 919272,
      "byteOffset": 2400000,
      "byteStride": 8,
      "name": "floatBufferViews",
      "target": 34962
    },
    {
      "buffer": 0,
      "byteLength": 2757816,
      "byteOffset": 3319272,
      "byteStride": 12,
      "name": "floatBufferViews",
      "target": 34962
    }
  ],
  "buffers": [
    {
      "byteLength": 6077088,
      "uri": "scene.bin"
    }
  ],
  "images": [
    {
      "uri": "textures/material_0_baseColor.png"
    }
  ],
  "materials": [
    {
      "doubleSided": true,
      "name": "material_0",
      "pbrMetallicRoughness": {
        "baseColorTexture": {
          "index": 0
        },
        "metallicFactor": 0.0,
        "roughnessFactor": 0.6731963779229526
      }
    }
  ],
  "meshes": [
    {
      "name": "Object_0",
      "primitives": [
        {
          "attributes": {
            "NORMAL": 1,
            "POSITION": 0,
            "TEXCOORD_0": 2
          },
          "indices": 3,
          "material": 0,
          "mode": 4
        }
      ]
    },
    {
      "name": "Object_1",
      "primitives": [
        {
          "attributes": {
            "NORMAL": 5,
            "POSITION": 4,
            "TEXCOORD_0": 6
          },
          "indices": 7,
          "material": 0,
          "mode": 4
        }
      ]
    }
  ],
  "nodes": [
    {
      "children": [
        1
      ],
      "matrix": [
        0.9303587675094604,
        -0.3666505217552185,
        1.8539565981926507e-18,
        0.0,
        0.3525610566139221,
        0.8946074247360228,
        0.27455103397369407,
        0.0,
        -0.10066428035497665,
        -0.2554309368133547,
        0.9615725278854369,
        0.0,
        0.0,
        0.0,
        0.0,
        1.0
      ],
      "name": "Sketchfab_model"
    },
    {
      "children": [
        2,
        3
      ],
      "name": "NHMW-AfW-DING046-002_3D-lowres.obj.cleaner.materialmerger.gles"
    },
    {
      "mesh": 0,
      "name": "Object_2"
    },
    {
      "mesh": 1,
      "name": "Object_3"
    }
  ],
  "samplers": [
    {
      "magFilter": 9729,
      "minFilter": 9987,
      "wrapS": 10497,
      "wrapT": 10497
    }
  ],
  "scene": 0,
  "scenes": [
    {
      "name": "Sketchfab_Scene",
      "nodes": [
        0
      ]
    }
  ],
  "textures": [
    {
      "sampler": 0,
      "source": 0
    }
  ]
}
